# xmcd
#
# Track frame offsets:
#	150
#	18310
#	37610
#	64820
#	78568
#	93621
#	117239
#	140469
#	161259
#	178789
#
# Disc length: 2603 seconds
#
# Revision: 0
# Processed by: cddbd v1.5.2PL0 Copyright (c) Steve Scherf et al.
# Submitted via: audiograbber 1.82.01
#
DISCID=780a290a
DTITLE=Murray McLauchlan - Midnight Break
DYEAR=1985
DGENRE=Country
TTITLE0=When You Become A Memory
TTITLE1=Suppertime In The Milltown
TTITLE2=Ten People On The Sidewalk
TTITLE3=I'm Best At Loving You
TTITLE4=I Keep A Light In My Window
TTITLE5=Louisa Can't Feed Another Child
TTITLE6=Me And Joey
TTITLE7=Golden Feilds
TTITLE8=Put Something On The Flames
TTITLE9=My Best Foot Forward
EXTD=
EXTT0=
EXTT1=
EXTT2=
EXTT3=
EXTT4=
EXTT5=
EXTT6=
EXTT7=
EXTT8=
EXTT9=
PLAYORDER=
